<svg xmlns="http://www.w3.org/2000/svg" viewBox="0 0 12 44" class="cr-element__handle cr-element__handle--left"><g fill="none" fill-rule="evenodd" transform="translate(-1)" opacity=".5"><path fill="#000" fill-rule="nonzero" d="M0.56,15.81 L0.56,4.405 C0.56,2.0925 3.11,0.2175 6.2575,0.2175 L6.2575,0.2175 C9.40375,0.2175 11.95625,2.0925 11.95625,4.405 L11.95625,4.405 L11.95625,15.81 C11.95625,18.125 9.40375,20 6.2575,20 L6.2575,20 C3.11,20 0.56,18.125 0.56,15.81" transform="matrix(1 0 0 -1 .75 20)"></path> <path fill="#000" fill-rule="nonzero" d="M0.96875,33.18125 L1.33375,2.50625 C1.33375,1.1675 2.4175,0.08125 3.7575,0.08125 L3.7575,0.08125 C5.0975,0.08125 6.1825,1.1675 6.1825,2.50625 L6.1825,2.50625 L6.6675,33.2425 C6.6675,34.58125 5.0975,35.6075 3.7575,35.6075 L3.7575,35.6075 C2.4175,35.6075 0.96875,34.52125 0.96875,33.18125" transform="matrix(1 0 0 -1 3.25 43.75)"></path></g></svg>