<svg width="41" height="4" viewBox="0 0 41 4" fill="none" xmlns="http://www.w3.org/2000/svg"><path d="M40.1768 2.17678C40.2744 2.07915 40.2744 1.92085 40.1768 1.82322L38.5858 0.232233C38.4882 0.134602 38.3299 0.134602 38.2322 0.232233C38.1346 0.329864 38.1346 0.488155 38.2322 0.585786L39.6464 2L38.2322 3.41421C38.1346 3.51184 38.1346 3.67014 38.2322 3.76777C38.3299 3.8654 38.4882 3.8654 38.5858 3.76777L40.1768 2.17678ZM0.823223 1.82322C0.725594 1.92085 0.725594 2.07915 0.823223 2.17678L2.41422 3.76777C2.51184 3.8654 2.67014 3.8654 2.76777 3.76777C2.8654 3.67014 2.8654 3.51184 2.76777 3.41421L1.35355 2L2.76777 0.585786C2.8654 0.488155 2.8654 0.329864 2.76777 0.232233C2.67014 0.134602 2.51184 0.134602 2.41422 0.232233L0.823223 1.82322ZM40 1.75L1 1.75V2.25L40 2.25V1.75Z" fill="#202020"></path></svg>