<?xml version="1.0" encoding="UTF-8" standalone="no"?>
<svg
   width="3.681982"
   height="39.5"
   viewBox="0 0 3.681982 39.5"
   fill="none"
   version="1.1"
   id="svg4"
   sodipodi:docname="size-arrow-v.svg"
   inkscape:version="1.1.2 (0a00cf5339, 2022-02-04)"
   xmlns:inkscape="http://www.inkscape.org/namespaces/inkscape"
   xmlns:sodipodi="http://sodipodi.sourceforge.net/DTD/sodipodi-0.dtd"
   xmlns="http://www.w3.org/2000/svg"
   xmlns:svg="http://www.w3.org/2000/svg">
  <defs
     id="defs8" />
  <sodipodi:namedview
     id="namedview6"
     pagecolor="#ffffff"
     bordercolor="#666666"
     borderopacity="1.0"
     inkscape:pageshadow="2"
     inkscape:pageopacity="0.0"
     inkscape:pagecheckerboard="0"
     showgrid="false"
     fit-margin-top="0"
     fit-margin-left="0"
     fit-margin-right="0"
     fit-margin-bottom="0"
     inkscape:zoom="6.7134146"
     inkscape:cx="-7.969119"
     inkscape:cy="37.313351"
     inkscape:window-width="1304"
     inkscape:window-height="704"
     inkscape:window-x="0"
     inkscape:window-y="0"
     inkscape:window-maximized="1"
     inkscape:current-layer="svg4" />
  <path
     d="m 1.6642125,39.426796 c 0.09763,0.0976 0.25593,0.0976 0.35356,0 l 1.590987,-1.591001 c 0.09763,-0.09759 0.09763,-0.2559 0,-0.353601 -0.09763,-0.09761 -0.255922,-0.09761 -0.353553,0 l -1.414214,1.414201 -1.41421,-1.414201 c -0.09763,-0.09761 -0.25593,-0.09761 -0.35356,0 -0.09763,0.0977 -0.09763,0.256001 0,0.353601 z m 0.35356,-39.35357351 c -0.09763,-0.09762999 -0.25593,-0.09762999 -0.35356,0 l -1.59099,1.59099681 c -0.09763,0.09762 -0.09763,0.25592 0,0.3535499 0.09763,0.09763 0.25593,0.09763 0.35356,0 l 1.41421,-1.41421976 1.414214,1.41421976 c 0.09763,0.09763 0.255922,0.09763 0.353553,0 0.09763,-0.09763 0.09763,-0.2559299 0,-0.3535499 z M 2.0909925,39.249997 V 0.24999947 h -0.5 V 39.249997 Z"
     fill="#202020"
     id="path2"
     style="stroke-width:1" />
</svg>
