<svg xmlns="http://www.w3.org/2000/svg" width="13" height="16" viewBox="0 0 41 48"><path d="M3.594 8.744h34.562v6.502H3.594V8.744zM14.74 3.539c0-.539.406-.945.946-.945H26c.539 0 .945.406.945.945V6.15H14.74V3.54zm19.7 37.121c0 2.075-1.752 3.829-3.827 3.829H11.137A3.788 3.788 0 0 1 7.31 40.66V17.84h27.13v22.82zm-23.302 6.358h19.474a6.43 6.43 0 0 0 6.423-6.422v-22.8l.605-.02c1.715-.053 3.11-1.497 3.11-3.218v-5.19a3.222 3.222 0 0 0-3.219-3.218h-7.928V3.54A3.542 3.542 0 0 0 26.063 0H15.687a3.543 3.543 0 0 0-3.54 3.539V6.15H4.22A3.222 3.222 0 0 0 1 9.37v5.252c0 1.687 1.395 3.102 3.11 3.155l.605.02v22.8a6.43 6.43 0 0 0 6.422 6.422z"/><path d="M26.176 37.666h2.594V23.961h-2.594zm-6.598 0h2.593V23.961h-2.593v13.705zm-6.599 0h2.593V23.961h-2.593v13.705z"/></svg>